# xmcd
#
# Track frame offsets: 
#        150
#        23242
#        42572
#        59730
#        73690
#        102040
#        133122
#        148032
#        169092
#        190510
#        209367
#        235385
#
# Disc length: 3550 seconds
#
# Revision: 1
# Processed by: cddbd v1.4PL0 Copyright (c) Steve Scherf et al.
# Submitted via: ExactAudioCopy v0.95a3
#
DISCID=b40ddc0c
DTITLE=Various Artist - Buddha Cafe
DYEAR=2003
DGENRE=Electronic
TTITLE0=No Noise - Karma Shabda 
TTITLE1=Govinda - Static Apparition
TTITLE2=Lotus - New Day Rising
TTITLE3=Ikarus - Secrets of Tantra 
TTITLE4=Prem Joshua - Bolo Hari (Dharma Dogz Remix)
TTITLE5=Masala - Just a Love
TTITLE6=Ikarus - Ocean of Joy
TTITLE7=Omar Faruk Tekbilek - Forbidden Love (Govinda Remix)
TTITLE8=Phobos - Elixir for Sunsets
TTITLE9=The Spirit Level - Star Gazer (Phobos Remix)
TTITLE10=Waterbone - Eastern Girl
TTITLE11=Upanishad - Vittorio Square
EXTD=
EXTT0=
EXTT1=
EXTT2=
EXTT3=
EXTT4=
EXTT5=
EXTT6=
EXTT7=
EXTT8=
EXTT9=
EXTT10=
EXTT11=
PLAYORDER=
